<?xml version="1.0" standalone="no"?>
<!DOCTYPE svg PUBLIC "-//W3C//DTD SVG 20010904//EN"
 "http://www.w3.org/TR/2001/REC-SVG-20010904/DTD/svg10.dtd">
<svg version="1.0" xmlns="http://www.w3.org/2000/svg"
 width="500.000000pt" height="500.000000pt" viewBox="0 0 500.000000 500.000000"
 preserveAspectRatio="xMidYMid meet">
<metadata>
Created by potrace 1.14, written by Peter Selinger 2001-2017
</metadata>
<g transform="translate(0.000000,500.000000) scale(0.100000,-0.100000)"
fill="#000000" stroke="none">
<path d="M2907 4920 c-229 -95 -406 -319 -515 -650 -63 -191 -121 -475 -107
-519 5 -16 -3 -21 -47 -31 -29 -7 -69 -21 -88 -31 -19 -10 -64 -32 -100 -48
-244 -113 -499 -366 -650 -646 -18 -33 -34 -64 -37 -68 -3 -4 -25 32 -50 80
-24 48 -56 106 -70 128 -50 76 -107 160 -113 165 -3 3 -23 28 -43 57 -21 29
-81 93 -134 143 -152 144 -308 236 -503 298 -127 41 -158 46 -175 32 -42 -34
11 -384 95 -638 74 -224 224 -501 358 -664 129 -156 237 -257 412 -387 79 -57
80 -59 80 -89 1 -62 53 -245 95 -337 15 -33 31 -69 35 -80 16 -41 98 -159 153
-219 15 -17 27 -35 27 -40 0 -25 -79 -120 -124 -149 -73 -47 -100 -57 -157
-57 -239 0 -455 -143 -529 -350 -33 -92 -33 -228 -1 -325 85 -252 326 -416
611 -418 236 -1 435 116 526 310 33 68 38 90 42 174 5 100 -8 185 -36 226 -33
51 19 208 96 290 38 40 40 41 83 33 210 -39 454 -7 662 87 88 39 150 75 251
146 68 48 68 48 115 38 152 -36 659 -49 831 -21 175 28 387 88 498 142 148 71
287 172 390 282 61 66 74 94 50 113 -39 31 -376 113 -523 128 -33 3 -71 8 -83
10 -77 13 -304 16 -422 5 -142 -12 -292 -33 -324 -46 -16 -6 -17 -4 -11 17 4
13 15 42 25 64 19 43 51 154 78 270 23 102 23 440 -1 554 l-17 83 28 21 c306
238 578 591 649 840 28 100 33 127 37 199 8 144 -23 272 -69 284 -80 20 -151
-46 -263 -246 -17 -31 -43 -67 -57 -80 -24 -22 -34 -25 -93 -22 -82 3 -102 -7
-148 -73 -29 -44 -44 -86 -84 -243 -46 -179 -76 -260 -122 -325 l-20 -28 -21
28 c-12 16 -24 30 -27 33 -3 3 -14 16 -23 29 -87 128 -299 275 -467 325 -30 9
-68 21 -85 26 -16 5 -60 12 -96 16 l-67 7 31 49 c33 53 91 123 196 234 81 86
92 100 124 155 49 85 46 127 -16 198 -41 48 -34 86 43 244 52 107 63 138 64
183 0 46 -4 58 -29 84 -35 37 -51 37 -138 0z"/>
</g>
</svg>
